<?xml version="1.0" encoding="UTF-8"?>
<svg xmlns="http://www.w3.org/2000/svg" xmlns:xlink="http://www.w3.org/1999/xlink" viewBox="0 0 128 128" width="128px" height="128px">
<g id="surface3186382">
<rect x="0" y="0" width="128" height="128" style="fill:rgb(100%,100%,100%);fill-opacity:0;stroke:none;"/>
<path style=" stroke:none;fill-rule:nonzero;fill:rgb(100%,34.117648%,13.333334%);fill-opacity:1;" d="M 85.332031 40 L 85.332031 114.667969 L 26.667969 114.667969 C 20.800781 114.667969 16 109.867188 16 104 L 16 40 Z M 85.332031 40 "/>
<path style=" stroke:none;fill-rule:nonzero;fill:rgb(100%,80.000001%,73.725492%);fill-opacity:1;" d="M 37.332031 13.332031 L 37.332031 104 C 37.332031 109.867188 32.535156 114.667969 26.667969 114.667969 L 104 114.667969 C 109.867188 114.667969 114.667969 109.867188 114.667969 104 L 114.667969 13.332031 Z M 37.332031 13.332031 "/>
<path style=" stroke:none;fill-rule:nonzero;fill:rgb(100%,34.117648%,13.333334%);fill-opacity:1;" d="M 53.332031 26.667969 L 101.332031 26.667969 L 101.332031 37.332031 L 53.332031 37.332031 Z M 53.332031 45.332031 L 74.667969 45.332031 L 74.667969 50.667969 L 53.332031 50.667969 Z M 80 45.332031 L 101.332031 45.332031 L 101.332031 50.667969 L 80 50.667969 Z M 53.332031 56 L 74.667969 56 L 74.667969 61.332031 L 53.332031 61.332031 Z M 80 56 L 101.332031 56 L 101.332031 61.332031 L 80 61.332031 Z M 53.332031 66.667969 L 74.667969 66.667969 L 74.667969 72 L 53.332031 72 Z M 80 66.667969 L 101.332031 66.667969 L 101.332031 72 L 80 72 Z M 53.332031 77.332031 L 74.667969 77.332031 L 74.667969 82.667969 L 53.332031 82.667969 Z M 80 77.332031 L 101.332031 77.332031 L 101.332031 82.667969 L 80 82.667969 Z M 53.332031 88 L 74.667969 88 L 74.667969 93.332031 L 53.332031 93.332031 Z M 80 88 L 101.332031 88 L 101.332031 93.332031 L 80 93.332031 Z M 53.332031 98.667969 L 74.667969 98.667969 L 74.667969 104 L 53.332031 104 Z M 80 98.667969 L 101.332031 98.667969 L 101.332031 104 L 80 104 Z M 80 98.667969 "/>
</g>
</svg>
